<?xml version="1.0" standalone="no"?>
<!DOCTYPE svg PUBLIC "-//W3C//DTD SVG 20010904//EN"
 "http://www.w3.org/TR/2001/REC-SVG-20010904/DTD/svg10.dtd">
<svg version="1.0" xmlns="http://www.w3.org/2000/svg"
 width="512.000000pt" height="512.000000pt" viewBox="0 0 512.000000 512.000000"
 preserveAspectRatio="xMidYMid meet">
<metadata>
Created by potrace 1.11, written by Peter Selinger 2001-2013
</metadata>
<g transform="translate(0.000000,512.000000) scale(0.100000,-0.100000)"
fill="#000000" stroke="none">
<path d="M2378 5116 c-1 -2 -34 -6 -73 -10 -38 -3 -97 -10 -130 -16 -33 -6
-76 -13 -95 -16 -19 -3 -51 -9 -70 -14 -19 -5 -46 -11 -60 -14 -58 -11 -232
-66 -320 -101 -106 -42 -337 -155 -380 -185 -16 -11 -31 -20 -34 -20 -10 0
-217 -149 -276 -199 -132 -110 -287 -265 -365 -365 -16 -21 -34 -44 -40 -50
-32 -37 -185 -264 -185 -275 0 -5 -3 -11 -7 -13 -13 -5 -128 -243 -173 -359
-35 -87 -93 -278 -104 -339 -2 -14 -7 -36 -10 -50 -53 -226 -69 -672 -32 -885
3 -16 8 -43 10 -60 13 -97 50 -247 92 -377 14 -43 22 -83 18 -89 -4 -7 -3 -9
4 -5 7 4 15 -6 20 -26 26 -93 147 -330 247 -483 142 -219 305 -401 505 -569
47 -39 87 -73 90 -76 10 -11 157 -109 225 -150 65 -40 297 -160 310 -160 3 0
24 -9 48 -19 158 -72 415 -140 622 -166 28 -4 77 -10 110 -15 59 -7 467 -5
515 4 14 2 45 7 70 11 64 9 88 13 150 25 30 7 68 14 85 17 52 9 277 81 365
116 468 190 869 509 1152 918 72 104 168 264 168 280 0 6 5 7 12 3 6 -4 8 -3
5 3 -3 5 7 38 24 71 36 75 105 247 115 288 4 16 10 34 14 39 8 10 55 195 65
254 3 19 7 37 9 40 3 5 9 42 22 131 28 206 26 532 -5 735 -26 167 -88 404
-136 520 -6 17 -25 61 -41 100 -16 38 -50 110 -76 160 -27 49 -56 106 -65 125
-10 19 -20 37 -23 40 -3 3 -21 30 -40 60 -127 202 -400 503 -554 610 -12 8
-30 23 -41 33 -20 18 -210 146 -275 185 -213 127 -577 261 -800 296 -19 3 -44
8 -56 10 -12 2 -45 7 -74 11 -29 4 -62 9 -74 12 -23 5 -452 13 -458 9z"/>
</g>
</svg>
